<?xml version="1.0" encoding="UTF-8" standalone="no"?>
<!DOCTYPE svg PUBLIC "-//W3C//DTD SVG 1.1//EN" "http://www.w3.org/Graphics/SVG/1.1/DTD/svg11.dtd">
<svg xmlns="http://www.w3.org/2000/svg" version="1.1" viewBox="0.00 0.00 120.00 120.00">
<path fill="#221d0c" fill-opacity="0.161" d="
  M 33.71 75.04
  L 0.30 46.44
  A 0.38 0.38 0.0 0 1 0.52 45.77
  L 43.29 42.95
  A 0.88 0.86 7.7 0 0 44.05 42.38
  Q 50.17 25.72 56.66 9.02
  Q 58.13 5.25 59.00 1.33
  A 0.80 0.79 41.3 0 1 60.53 1.24
  L 75.77 42.00
  A 1.53 1.51 81.3 0 0 77.10 42.99
  L 118.44 45.53
  A 0.74 0.73 26.3 0 1 118.88 46.82
  L 87.72 73.79
  Q 87.44 74.03 87.12 74.20
  Q 85.82 74.87 86.25 76.51
  Q 89.98 90.44 93.52 104.43
  Q 95.31 111.52 96.59 118.48
  A 0.57 0.57 0.0 0 1 95.71 119.06
  L 60.59 95.41
  A 0.91 0.90 44.6 0 0 59.58 95.41
  L 24.02 119.56
  A 0.54 0.53 -10.0 0 1 23.20 118.99
  L 33.92 75.87
  Q 34.05 75.33 33.71 75.04
  Z"
/>
</svg>
